<?xml version="1.0" encoding="utf-8"?>
<!-- Generator: Adobe Illustrator 25.1.0, SVG Export Plug-In . SVG Version: 6.00 Build 0)  -->
<svg version="1.1" id="Capa_1" xmlns="http://www.w3.org/2000/svg" xmlns:xlink="http://www.w3.org/1999/xlink" x="0px" y="0px"
	 viewBox="0 0 2344 2500" style="enable-background:new 0 0 2344 2500;" xml:space="preserve">
<style type="text/css">
	.st0{fill:none;stroke:#FFFFFF;stroke-width:53;stroke-miterlimit:10;}
	.st1{fill-rule:evenodd;clip-rule:evenodd;fill:#FFFFFF;}
</style>
<g>
	<path class="st0" d="M1098.8,2480.5c13.4,7.6,25.4,11.2,36.7,14c15.6,3.9,29.7,5.4,43.2,5.5c29,0.1,56.1-5.7,95.9-28.6l955.8-520.9
		c71.6-41.1,102.9-84,102.9-166.2V724.5c0-82.2-50.2-118.9-122.2-160L1250.7,41.8c-7.3-4.4-14.9-8.2-22.9-11.3
		c-14.7-5.4-30.2-8.1-45.9-7.9c-24.2,0-48,0.1-91.4,25L152.8,553C81.2,594,10.7,642.3,10.7,724.5l1.9,1064.3
		c0,82.2,59.9,135.6,131.9,176.7L1098.8,2480.5L1098.8,2480.5z"/>
	<path class="st1" d="M1464.4,862.5v355.3h74.3V912.9l129.6,254.4c21.4,41.3,40.6,55,69.8,55c31.5,0,49.5-19.5,49.5-63.1V804h-74.3
		v303.7l-129.6-253.3c-20.3-40.1-41.7-53.8-69.8-53.8C1483.6,799.5,1464.4,818.9,1464.4,862.5L1464.4,862.5z M1224.4,1222.3
		c126.2,0,162.3-61.9,162.3-210.9c0-150.1-36-210.8-162.2-210.8c-127.3-1.2-163.4,60.7-163.4,210.8S1097.1,1222.3,1224.4,1222.3
		L1224.4,1222.3z M1145.6,1011.5c0-84.8,2.2-142.1,78.8-142.1s78.8,57.3,78.8,142.1s-2.2,142.1-78.8,142.1
		C1146.7,1152.4,1145.6,1095.1,1145.6,1011.5L1145.6,1011.5z M699.4,810.9v406.8h82.3v-158.2c14.6,1.2,32.7,2.3,49.5,2.3l83.4,155.8
		h94.6l-93.5-166.2c48.5-14.9,77.8-49.3,77.8-122.6c0-112.3-73.2-129.5-163.4-129.5C782.8,799.4,734.4,804,699.4,810.9L699.4,810.9z
		 M781.7,993.1V868.2c16.9-2.3,36-3.4,51.8-3.4c59.7,0,80,18.3,80,64.1c0,52.7-30.4,66.5-81.1,66.5c-15.8,0-31.5,0-48.5-2.3h-1.1
		H781.7z M528.2,1217.7h83.3V804h-83.3V1217.7L528.2,1217.7z M1224.5,1222.3C1224.5,1222.3,1097.1,1222.3,1224.5,1222.3z
		 M1232.1,1546.3c0,137,29.8,196.4,151.2,196.4c30.9,0,58.4-3.4,82.8-7.9l-3.3-25.8c-20.9,3.4-41.9,5.6-62.9,5.6
		c-119.2,0-134.6-55-134.6-168.4c0-113.3,13.2-168.3,134.6-168.3c20.9,0,43,3.4,62.9,5.6l3.3-26.9c-27.3-5.2-55-7.8-82.8-7.9
		C1261.9,1350,1232.1,1409.4,1232.1,1546.3L1232.1,1546.3z M1015.8,1372.4l-137.9,367H911l41.9-114.5h171l41.9,114.5h34.2
		l-136.9-367.1c-5.5-14.6-13.2-22.5-24.3-22.5C1029,1349.9,1022.4,1356.6,1015.8,1372.4L1015.8,1372.4z M1039,1393.7l75,204.3H962.9
		L1039,1393.7z M1745.1,1354.4l-175.4,178.4v-178.4h-32v385h32v-189.7l178.8,189.7h41.9l-188.7-198.7l183.2-186.3H1745.1z
		 M776.4,1354.4v174H563.5v-174h-32v385h32v-183h214.1v183h32v-385H776.4L776.4,1354.4z"/>
</g>
</svg>
